<svg fill="#b3b3b3" width="64" height="64" viewBox="0 0 56 56" xmlns="http://www.w3.org/2000/svg"><path d="M28 51.9A24.08 24.08 0 0 0 51.9 28 24.12 24.12 0 0 0 27.99 4.1 24.06 24.06 0 0 0 4.09 28 24.07 24.07 0 0 0 28 51.9Zm0-3.98A19.83 19.83 0 0 1 8.1 28 19.82 19.82 0 0 1 27.98 8.08 19.91 19.91 0 0 1 47.92 28 19.85 19.85 0 0 1 28 47.92Zm0-21.23c3.4.02 6.12-2.89 6.12-6.7 0-3.57-2.72-6.54-6.12-6.54s-6.12 2.97-6.12 6.53c0 3.82 2.72 6.68 6.12 6.7ZM17.08 39.98H38.9c.94 0 1.4-.64 1.4-1.48 0-2.63-3.93-9.4-12.3-9.4-8.37 0-12.3 6.77-12.3 9.4 0 .84.46 1.48 1.38 1.48Z"/></svg>