<svg xmlns="http://www.w3.org/2000/svg" width="64" height="64" viewBox="0 0 512 512">
  <g fill="var(--ci-primary-color, #000000)">
    <path d="M256 416h240v32H256zm0-106.67h240v32H256zm0-106.66h240v32H256zM328 96h168v32H328z" class="ci-primary"/>
    <path d="M302 111 167.2 27.22V96h-5.96c-39.46 0-76.33 18.75-103.84 52.81C30.7 181.87 16 225.61 16 272s14.7 90.13 41.4 123.19C84.91 429.25 121.78 448 161.23 448H216v-32h-54.77C98.8 416 48 351.4 48 272s50.8-144 113.23-144h5.97v69.23ZM199.2 84.78 242 111.4l-42.8 27.38Z" class="ci-primary"/>
  </g>
</svg>