<svg xmlns="http://www.w3.org/2000/svg" width="64" height="64" fill="none" viewBox="0 0 24 24">
  <g fill="#0F0F0F">
    <path d="M23 12c0 .35-.02.7-.05 1.05a7.01 7.01 0 0 0-1.96-1.38 9 9 0 1 0-9.32 9.32c.34.73.81 1.4 1.38 1.96A11 11 0 1 1 23 12Z"/>
    <path d="m13 11.88.84.49c-.56.41-1.05.9-1.46 1.46l-.86-.5a1 1 0 0 1-.4-.4c-.12-.2-.12-.46-.12-.46V6a1 1 0 1 1 2 0v5.88Zm2.3 5.82a1 1 0 0 1 1.4 0l.65.65 1.9-1.9a1 1 0 0 1 1.41 1.41l-2.54 2.54a1 1 0 0 1-.29.2 1 1 0 0 1-1.21-.15l-1.33-1.33a1 1 0 0 1 0-1.41Z"/>
    <path fill-rule="evenodd" d="M18 24a6 6 0 1 0 0-12 6 6 0 0 0 0 12Zm0-1.98a4.02 4.02 0 1 1 0-8.04 4.02 4.02 0 0 1 0 8.04Z" clip-rule="evenodd"/>
  </g>
</svg>.0521 16.8397 21.0521 17.4728 20.6615 17.8634L18.1213 20.4036C18.0349 20.49 17.9367 20.5573 17.8318 20.6054C17.4488 20.8294 16.9487 20.7772 16.6203 20.4487L15.2929 19.1213C14.9024 18.7308 14.9024 18.0976 15.2929 17.7071Z" fill="#0F0F0F"></path> <path fill-rule="evenodd" clip-rule="evenodd" d="M18 24C21.3137 24 24 21.3137 24 18C24 14.6863 21.3137 12 18 12C14.6863 12 12 14.6863 12 18C12 21.3137 14.6863 24 18 24ZM18 22.0181C15.7809 22.0181 13.9819 20.2191 13.9819 18C13.9819 15.7809 15.7809 13.9819 18 13.9819C20.2191 13.9819 22.0181 15.7809 22.0181 18C22.0181 20.2191 20.2191 22.0181 18 22.0181Z" fill="#0F0F0F"></path> </g></svg>