<svg width="16" height="15" viewBox="0 0 24 24" fill="none" xmlns="http://www.w3.org/2000/svg" stroke="#000"><path d="M8 7h8m-4 0v10m-4.2 4h8.4c1.68 0 2.52 0 3.16-.33a3 3 0 0 0 1.31-1.3c.33-.65.33-1.49.33-3.17V7.8c0-1.68 0-2.52-.33-3.16a3 3 0 0 0-1.3-1.31C18.71 3 17.87 3 16.2 3H7.8c-1.68 0-2.52 0-3.16.33a3 3 0 0 0-1.31 1.3C3 5.29 3 6.13 3 7.8v8.4c0 1.68 0 2.52.33 3.16a3 3 0 0 0 1.3 1.31c.65.33 1.49.33 3.17.33Z" stroke="#b3b3b3" stroke-width="2" stroke-linecap="round" stroke-linejoin="round"/></svg>
